<?xml version="1.0" standalone="no"?><!DOCTYPE svg PUBLIC "-//W3C//DTD SVG 1.1//EN" "http://www.w3.org/Graphics/SVG/1.1/DTD/svg11.dtd"><svg t="1679388970813" class="icon" viewBox="0 0 1024 1024" version="1.1" xmlns="http://www.w3.org/2000/svg" p-id="7699" xmlns:xlink="http://www.w3.org/1999/xlink" width="32" height="32"><path d="M853.333333 170.666667a73.142857 73.142857 0 0 1 73.142857 73.142857v536.380952a73.142857 73.142857 0 0 1-73.142857 73.142857H170.666667a73.142857 73.142857 0 0 1-73.142857-73.142857V243.809524a73.142857 73.142857 0 0 1 73.142857-73.142857h682.666666z m0 73.142857H170.666667v536.380952h682.666666V243.809524z m-375.856762 168.057905l120.685715 120.685714 51.687619-51.712 172.422095 172.373333-51.712 51.736381-120.685714-120.685714-51.736381 51.736381-120.685715-120.685714-224.109714 224.109714-51.712-51.687619 275.846095-275.870476zM731.428571 292.571429a48.761905 48.761905 0 1 1 0 97.523809 48.761905 48.761905 0 0 1 0-97.523809z" p-id="7700"></path></svg>