<?xml version="1.0" standalone="no"?><!DOCTYPE svg PUBLIC "-//W3C//DTD SVG 1.1//EN" "http://www.w3.org/Graphics/SVG/1.1/DTD/svg11.dtd"><svg t="1679385119557" class="icon" viewBox="0 0 1024 1024" version="1.1" xmlns="http://www.w3.org/2000/svg" p-id="1349" xmlns:xlink="http://www.w3.org/1999/xlink" width="32" height="32"><path d="M511.8 1023.7C229.6 1023.7 0 794.1 0 511.8S229.6 0 511.8 0s511.8 229.6 511.8 511.8-229.5 511.9-511.8 511.9z m0-938.4c-235.2 0-426.5 191.3-426.5 426.5s191.3 426.5 426.5 426.5S938.3 747 938.3 511.8 747 85.3 511.8 85.3z" fill="#3688FF" p-id="1350"></path><path d="M292.7 773.7c-11.1 0-22-4.4-30.2-12.5-11.8-11.7-15.6-29.3-9.9-44.9l96.9-263.5c17.9-48.7 54.6-85.4 103.3-103.3l263.5-96.9c15.6-5.7 33.1-1.9 44.9 9.9 11.8 11.7 15.6 29.3 9.9 44.9l-96.9 263.5c-17.9 48.7-54.6 85.4-103.3 103.3l-263.5 96.9c-4.8 1.8-9.8 2.6-14.7 2.6z m366.5-409.2l-176.8 65c-25.6 9.4-43.3 27.2-52.7 52.7L364.6 659l176.8-65c25.6-9.4 43.3-27.2 52.7-52.7l65.1-176.8zM556.1 634.1h0.2-0.2z" fill="#5F6379" p-id="1351"></path></svg>