<?xml version="1.0" standalone="no"?><!DOCTYPE svg PUBLIC "-//W3C//DTD SVG 1.1//EN" "http://www.w3.org/Graphics/SVG/1.1/DTD/svg11.dtd"><svg t="1679389004452" class="icon" viewBox="0 0 1024 1024" version="1.1" xmlns="http://www.w3.org/2000/svg" p-id="7849" xmlns:xlink="http://www.w3.org/1999/xlink" width="32" height="32"><path d="M828.952381 146.285714a73.142857 73.142857 0 0 1 73.142857 73.142857v633.904762a73.142857 73.142857 0 0 1-73.142857 73.142857H195.047619a73.142857 73.142857 0 0 1-73.142857-73.142857V219.428571a73.142857 73.142857 0 0 1 73.142857-73.142857h633.904762z m0 73.142857H195.047619v633.904762h633.904762V219.428571z m-48.761905 512v73.142858H243.809524v-73.142858h536.380952z m-73.142857-463.238095a73.142857 73.142857 0 0 1 73.142857 73.142857v249.709715a48.761905 48.761905 0 0 1-75.995428 40.448l-67.437715-45.421715a48.761905 48.761905 0 0 0-54.467047 0l-67.437715 45.421715A48.761905 48.761905 0 0 1 438.857143 590.994286V341.333333a73.142857 73.142857 0 0 1 73.142857-73.142857h195.047619z m0 73.142857h-195.047619v203.873524l29.42781-19.797333a121.904762 121.904762 0 0 1 131.193904-3.193905l4.998096 3.169524 29.427809 19.821714V341.333333z" p-id="7850"></path></svg>